<?xml version="1.0" encoding="utf-8"?>
<!DOCTYPE svg PUBLIC "-//W3C//DTD SVG 20010904//EN" "http://www.w3.org/TR/2001/REC-SVG-20010904/DTD/svg10.dtd">
<svg version="1.0" xmlns="http://www.w3.org/2000/svg" width="967pt" height="692pt" viewBox="0 0 967 692" preserveAspectRatio="xMidYMid meet">
<g fill="#FEFEFEFF">
<path d="M 326.00 354.00 L 326.00 17.00 L 492.00 17.00 L 658.00 17.00 L 658.00 354.00 L 658.00 691.00 L 492.00 691.00 L 326.00 691.00 L 326.00 354.00Z"/></g>
<g fill="#002395FF">
<path d="M 1.00 355.02 L 1.00 19.04 L 3.25 18.50 C 4.49 18.20 77.28 18.08 165.00 18.23 L 324.50 18.50 L 324.75 354.75 L 325.00 691.00 L 163.00 691.00 L 1.00 691.00 L 1.00 355.02Z"/></g>
<g fill="#EC2839FE">
<path d="M 659.25 354.75 L 659.50 18.50 L 812.00 18.50 L 964.50 18.50 L 964.75 354.75 L 965.00 691.00 L 812.00 691.00 L 659.00 691.00 L 659.25 354.75Z"/></g>
<g fill="#21367EFF">
<path d="M 324.75 354.75 L 324.50 18.50 L 162.75 18.50 C 73.79 18.50 1.00 18.16 1.00 17.75 C 1.00 17.34 74.12 17.00 163.50 17.00 L 326.00 17.00 L 326.00 354.00 C 326.00 539.35 325.78 691.00 325.50 691.00 C 325.23 691.00 324.89 539.69 324.75 354.75Z"/></g>
<g fill="#E99099FF">
<path d="M 658.49 354.00 C 658.49 168.38 658.61 92.44 658.75 185.25 C 658.89 278.06 658.89 429.94 658.75 522.75 C 658.61 615.56 658.49 539.62 658.49 354.00Z"/></g>
<g fill="#D96B73FF">
<path d="M 965.49 355.00 C 965.49 169.92 965.61 94.21 965.75 186.75 C 965.89 279.29 965.89 430.71 965.75 523.25 C 965.61 615.79 965.49 540.08 965.49 355.00Z"/></g>
<g fill="#D96B73FF">
<path d="M 735.25 17.25 C 777.46 17.11 846.54 17.11 888.75 17.25 C 930.96 17.39 896.42 17.51 812.00 17.51 C 727.58 17.51 693.04 17.39 735.25 17.25Z"/></g>
</svg>
